<svg class="icon" viewBox="0 0 1024 1024" xmlns="http://www.w3.org/2000/svg" width="200" height="200"><defs><style/></defs><path d="M512 360.727a34.91 34.91 0 01-34.91-34.909V256a34.91 34.91 0 1169.82 0v69.818a34.91 34.91 0 01-34.91 34.91zm-222.161-27.159l49.361 49.361a34.91 34.91 0 11-49.338 49.362l-49.385-49.362a34.91 34.91 0 1149.362-49.361zm-57.112 236.614a34.91 34.91 0 110 69.818H162.91a34.91 34.91 0 110-69.818h69.818zm628.364 0a34.91 34.91 0 110 69.818h-69.818a34.91 34.91 0 110-69.818h69.818zm-77.568-236.614a34.91 34.91 0 010 49.361l-49.362 49.362a34.816 34.816 0 01-49.361 0 34.91 34.91 0 010-49.362l49.361-49.361a34.91 34.91 0 0149.362 0zm59.415 527.523a417.233 417.233 0 0087.971-256c0-230.982-187.904-418.91-418.909-418.91-230.982 0-418.91 187.928-418.91 418.91 0 92.835 31.047 182.644 87.972 256h661.876zM512 116.364c269.917 0 488.727 218.81 488.727 488.727 0 125.347-47.592 239.313-125.207 325.818H148.48C70.865 844.404 23.25 730.438 23.25 605.091 23.272 335.174 242.105 116.364 512 116.364zm-32.908 455.82c18.153-18.177 97.001-67.538 115.2-49.385 18.153 18.199-31.208 97.024-49.384 115.2a46.545 46.545 0 11-65.816-65.816z"/></svg>