<svg class="icon" viewBox="0 0 1024 1024" xmlns="http://www.w3.org/2000/svg" width="200" height="200"><defs><style/></defs><path d="M532.48 1006.933h-44.373c-81.92 0-146.774-64.853-146.774-146.773V163.84c0-81.92 64.854-146.773 146.774-146.773h27.306c276.48 0 505.174 218.453 508.587 484.693 3.413 133.12-47.787 262.827-143.36 358.4-92.16 95.573-215.04 146.773-348.16 146.773zM488.107 51.2c-61.44 0-112.64 51.2-112.64 112.64v696.32c0 61.44 51.2 112.64 112.64 112.64h44.373c122.88 0 238.933-47.787 327.68-136.533 88.747-88.747 133.12-208.214 133.12-331.094C986.453 252.587 771.413 51.2 515.413 51.2h-27.306zm-266.24 273.067h-204.8C6.827 324.267 0 317.44 0 307.2s6.827-17.067 17.067-17.067h204.8c10.24 0 17.066 6.827 17.066 17.067s-6.826 17.067-17.066 17.067zm0 204.8h-204.8C6.827 529.067 0 522.24 0 512s6.827-17.067 17.067-17.067h204.8c10.24 0 17.066 6.827 17.066 17.067s-6.826 17.067-17.066 17.067zm0 204.8h-204.8C6.827 733.867 0 727.04 0 716.8s6.827-17.067 17.067-17.067h204.8c10.24 0 17.066 6.827 17.066 17.067s-6.826 17.067-17.066 17.067z"/></svg>