<svg class="icon" viewBox="0 0 1025 1024" xmlns="http://www.w3.org/2000/svg" width="200.195" height="200"><defs><style/></defs><path d="M533.388 1006.933h-44.373c-81.92 0-146.774-64.853-146.774-146.773V163.84c0-81.92 64.854-146.773 146.774-146.773h27.306c276.48 0 505.174 218.453 508.587 484.693 3.413 133.12-47.787 262.827-143.36 358.4-92.16 95.573-215.04 146.773-348.16 146.773zM489.015 51.2c-61.44 0-112.64 51.2-112.64 112.64v696.32c0 61.44 51.2 112.64 112.64 112.64h44.373c122.88 0 238.933-47.787 327.68-136.533 88.747-88.747 133.12-208.214 133.12-331.094C987.36 252.587 772.32 51.2 516.32 51.2h-27.306zM17.975 392.533c-6.827 0-13.654-3.413-17.067-10.24-3.413-10.24 3.413-17.066 10.24-20.48l204.8-68.266c10.24-6.827 20.48 0 23.893 6.826 3.414 10.24-3.413 17.067-10.24 20.48l-204.8 68.267c-3.413 3.413-3.413 3.413-6.826 3.413zm0 204.8c-6.827 0-13.654-3.413-17.067-10.24-3.413-10.24 3.413-17.066 10.24-20.48l204.8-68.266c10.24-3.414 17.067 3.413 20.48 10.24 3.413 10.24-3.413 17.066-10.24 20.48l-204.8 68.266h-3.413zm0 204.8c-6.827 0-13.654-3.413-17.067-10.24-3.413-10.24 3.413-17.066 10.24-20.48l204.8-68.266c10.24-3.414 17.067 3.413 20.48 10.24 3.413 10.24-3.413 17.066-10.24 20.48l-204.8 68.266h-3.413z"/></svg>