<svg class="icon" viewBox="0 0 1024 1024" xmlns="http://www.w3.org/2000/svg" width="200" height="200"><defs><style/></defs><path d="M913.155 866.385L764.753 717.546a389.657 389.657 0 0056.514-94.217c20.321-48.187 30.625-99.354 30.625-152.078 0-52.728-10.304-103.894-30.625-152.077-19.622-46.527-47.705-88.306-83.47-124.174-35.764-35.869-77.422-64.036-123.818-83.718-48.054-20.384-99.078-30.72-151.656-30.72s-103.603 10.335-151.657 30.72C264.271 130.963 222.613 159.13 186.847 195c-35.763 35.867-63.846 77.645-83.47 124.174-20.322 48.189-30.625 99.355-30.625 152.077s10.304 103.888 30.625 152.077c19.623 46.527 47.706 88.306 83.47 124.175 35.765 35.871 77.424 64.038 123.819 83.719 48.055 20.384 99.08 30.72 151.657 30.72s103.602-10.336 151.656-30.72c38.448-16.31 73.846-38.603 105.229-66.269l147.539 147.97c6.197 6.216 14.438 9.64 23.205 9.64 8.769 0 17.009-3.424 23.205-9.64 12.793-12.832 12.792-33.709-.002-46.538zM688.34 697.964c-60.372 60.55-140.641 93.896-226.018 93.896s-165.645-33.346-226.018-93.896c-60.379-60.557-93.631-141.071-93.631-226.712 0-85.642 33.252-166.156 93.631-226.712 60.373-60.55 140.641-93.896 226.018-93.896 85.378 0 165.646 33.346 226.018 93.896 60.378 60.556 93.63 141.071 93.63 226.712 0 85.641-33.252 166.155-93.63 226.712z"/></svg>