<?xml version="1.0" standalone="no"?><!DOCTYPE svg PUBLIC "-//W3C//DTD SVG 1.1//EN" "http://www.w3.org/Graphics/SVG/1.1/DTD/svg11.dtd"><svg class="icon" width="200px" height="200.00px" viewBox="0 0 1024 1024" version="1.1" xmlns="http://www.w3.org/2000/svg"><path  d="M931.281455 651.473455h-24.506182a418.490182 418.490182 0 0 1-17.012364 40.610909l17.547636 17.547636a93.090909 93.090909 0 0 1 0 131.653818l-65.815272 65.815273a93.090909 93.090909 0 0 1-131.653818 0l-17.57091-17.570909a419.072 419.072 0 0 1-40.634181 17.035636V930.909091a93.090909 93.090909 0 0 1-93.090909 93.090909h-93.09091a93.090909 93.090909 0 0 1-93.090909-93.090909v-24.343273a415.069091 415.069091 0 0 1-40.401454-17.058909l-17.431273 17.454546a93.090909 93.090909 0 0 1-131.653818 0l-65.838546-65.838546a93.090909 93.090909 0 0 1 0-131.653818l17.152-17.152a428.218182 428.218182 0 0 1-16.942545-40.843636H93.463273a93.090909 93.090909 0 0 1-93.090909-93.09091v-93.090909a93.090909 93.090909 0 0 1 93.090909-93.090909h23.854545a418.397091 418.397091 0 0 1 17.058909-40.587636l-16.965818-16.965818a93.090909 93.090909 0 0 1 0-131.653818l65.815273-65.815273a93.090909 93.090909 0 0 1 131.653818 0l17.152 17.128727A412.765091 412.765091 0 0 1 372.363636 117.410909V93.090909a93.090909 93.090909 0 0 1 93.090909-93.090909h93.09091a93.090909 93.090909 0 0 1 93.090909 93.090909v24.343273a415.069091 415.069091 0 0 1 40.401454 17.058909l17.431273-17.454546a93.090909 93.090909 0 0 1 131.653818 0l65.838546 65.838546a93.090909 93.090909 0 0 1 0 131.653818l-17.152 17.152a421.748364 421.748364 0 0 1 16.802909 40.541091h24.669091a93.090909 93.090909 0 0 1 93.090909 93.090909v93.090909a93.090909 93.090909 0 0 1-93.090909 93.067637z m-46.545455-186.181819h-46.545455c-1.396364 0-2.676364 0.302545-4.026181 0.418909a323.490909 323.490909 0 0 0-61.928728-149.154909c0.954182-0.814545 2.164364-1.140364 3.072-2.024727l32.907637-32.930909a46.545455 46.545455 0 1 0-65.838546-65.815273l-32.907636 32.907637c-0.884364 0.907636-1.210182 2.117818-2.024727 3.072a323.351273 323.351273 0 0 0-149.271273-61.928728c0-1.233455 0.372364-2.327273 0.372364-3.653818V139.636364a46.545455 46.545455 0 0 0-93.09091 0v46.545454c0 1.256727 0.279273 2.327273 0.372364 3.653818a323.746909 323.746909 0 0 0-149.108364 61.789091c-0.744727-0.861091-1.000727-1.954909-1.838545-2.769454l-32.907636-32.907637a46.545455 46.545455 0 1 0-65.815273 65.815273l32.907636 32.907636c0.814545 0.814545 1.885091 1.093818 2.746182 1.815273a323.490909 323.490909 0 0 0-61.952 149.154909c-1.117091 0-2.187636-0.349091-3.304727-0.349091h-46.545455a46.545455 46.545455 0 0 0 0 93.090909h46.545455c1.117091 0 2.164364-0.232727 3.258182-0.325818a323.490909 323.490909 0 0 0 61.952 149.387637c-0.954182 0.814545-2.164364 1.117091-3.072 2.024727l-32.907637 32.907636a46.545455 46.545455 0 0 0 65.815273 65.838546l32.930909-32.907637c0.884364-0.907636 1.210182-2.117818 2.024727-3.072a323.351273 323.351273 0 0 0 149.271273 61.928728c0 1.233455-0.372364 2.327273-0.372364 3.653818v46.545454a46.545455 46.545455 0 0 0 93.09091 0v-46.545454c0-1.256727-0.279273-2.327273-0.372364-3.653818a323.746909 323.746909 0 0 0 149.457454-62.045091 39.284364 39.284364 0 0 0 2.327273 3.328l32.907637 32.907636a46.545455 46.545455 0 1 0 65.838545-65.815273l-32.930909-32.907636c-0.977455-1.000727-2.327273-1.349818-3.374546-2.327273a323.677091 323.677091 0 0 0 61.928728-149.387636c1.326545 0 2.606545 0.395636 3.979636 0.395636h46.545455a46.545455 46.545455 0 0 0-0.116364-93.021091zM512 721.454545a209.454545 209.454545 0 1 1 209.454545-209.454545 209.454545 209.454545 0 0 1-209.454545 209.454545z m0-372.363636a162.909091 162.909091 0 1 0 162.909091 162.909091 162.909091 162.909091 0 0 0-162.909091-162.909091z" /></svg>
