<svg class="icon" width="200" height="200" viewBox="0 0 1024 1024" xmlns="http://www.w3.org/2000/svg"><path d="M931.281 651.473h-24.506a418.49 418.49 0 01-17.012 40.611l17.548 17.548a93.09 93.09 0 010 131.654L841.495 907.1a93.09 93.09 0 01-131.654 0l-17.57-17.57a419.072 419.072 0 01-40.635 17.035v24.343a93.09 93.09 0 01-93.09 93.091h-93.091a93.09 93.09 0 01-93.091-93.09v-24.344a415.07 415.07 0 01-40.402-17.06l-17.431 17.455a93.09 93.09 0 01-131.654 0l-65.838-65.838a93.09 93.09 0 010-131.654l17.152-17.152a428.218 428.218 0 01-16.943-40.844H93.463a93.09 93.09 0 01-93.09-93.09v-93.091a93.09 93.09 0 0193.09-93.091h23.855a418.397 418.397 0 0117.059-40.588l-16.966-16.966a93.09 93.09 0 010-131.654l65.815-65.815a93.09 93.09 0 01131.654 0l17.152 17.129a412.765 412.765 0 0140.332-16.896V93.09A93.09 93.09 0 01465.454 0h93.091a93.09 93.09 0 0193.091 93.09v24.344a415.07 415.07 0 0140.402 17.06l17.431-17.455a93.09 93.09 0 01131.654 0l65.838 65.838a93.09 93.09 0 010 131.654l-17.152 17.152a421.748 421.748 0 0116.803 40.541h24.67a93.09 93.09 0 0193.09 93.09v93.092a93.09 93.09 0 01-93.09 93.067zm-46.545-186.181h-46.545c-1.397 0-2.677.302-4.027.419a323.49 323.49 0 00-61.928-149.155c.954-.815 2.164-1.14 3.072-2.025l32.907-32.931a46.545 46.545 0 10-65.838-65.815l-32.908 32.907c-.884.908-1.21 2.118-2.025 3.072a323.351 323.351 0 00-149.27-61.928c0-1.234.371-2.328.371-3.654v-46.546a46.545 46.545 0 00-93.09 0v46.546c0 1.257.279 2.327.372 3.654a323.747 323.747 0 00-149.108 61.789c-.745-.861-1.001-1.955-1.839-2.77l-32.908-32.907a46.545 46.545 0 10-65.815 65.815l32.908 32.908c.814.814 1.885 1.093 2.746 1.815a323.49 323.49 0 00-61.952 149.155c-1.117 0-2.188-.35-3.305-.35H140.01a46.545 46.545 0 000 93.092h46.545c1.117 0 2.165-.233 3.258-.326a323.49 323.49 0 0061.952 149.387c-.954.815-2.164 1.117-3.072 2.025l-32.907 32.908a46.545 46.545 0 0065.815 65.838l32.93-32.907c.885-.908 1.211-2.118 2.026-3.072a323.351 323.351 0 00149.27 61.928c0 1.234-.371 2.328-.371 3.654v46.546a46.545 46.545 0 0093.09 0v-46.546c0-1.257-.279-2.327-.372-3.654a323.747 323.747 0 00149.458-62.045 39.284 39.284 0 002.327 3.328l32.907 32.908a46.545 46.545 0 1065.839-65.815l-32.93-32.908c-.978-1-2.328-1.35-3.375-2.327a323.677 323.677 0 0061.928-149.388c1.327 0 2.607.396 3.98.396h46.545a46.545 46.545 0 00-.116-93.021zM512 721.455A209.455 209.455 0 11721.455 512 209.455 209.455 0 01512 721.455zm0-372.364A162.91 162.91 0 10674.91 512 162.91 162.91 0 00512 349.09z"/></svg>