<svg class="icon" viewBox="0 0 1024 1024" xmlns="http://www.w3.org/2000/svg" width="200" height="200"><defs><style/></defs><path d="M85.333 955.733a17.05 17.05 0 01-12.066-29.132l186.13-186.13C189.166 664.764 153.6 573.628 153.6 469.333c0-110.011 39.578-205.363 117.64-283.426s173.415-117.64 283.427-117.64h384a17.067 17.067 0 0117.066 17.066v395.094c0 10.632-.597 21.845-1.775 33.33-9.506 91.205-48.469 171.623-115.848 239.002C760.03 830.822 664.66 870.4 554.667 870.4c-104.295 0-195.43-35.567-271.138-105.78L97.399 950.734a17.015 17.015 0 01-12.066 5zm222.362-215.279c69.052 63.59 152.064 95.813 246.972 95.813 100.625 0 187.87-36.216 259.294-107.64 61.696-61.713 97.365-135.185 106.018-218.402 1.092-10.308 1.621-20.343 1.621-29.798V102.4H554.667c-100.625 0-187.87 36.215-259.294 107.64s-107.64 158.668-107.64 259.293c0 94.925 32.222 177.92 95.83 246.99L409.6 590.267v-163.6a17.067 17.067 0 0134.133 0v129.467l141.534-141.533a17.05 17.05 0 1124.132 24.132L467.866 580.267h129.467a17.067 17.067 0 110 34.133h-163.6L307.694 740.454z"/></svg>